<svg width="550" height="86" viewBox="0 0 550 86" fill="none" xmlns="http://www.w3.org/2000/svg">
<path d="M68.76 84L35.52 -5.72205e-06H47.52L81.36 84H68.76ZM1.08 84L34.92 -5.72205e-06H46.92L13.68 84H1.08ZM17.04 61.56V51H65.4V61.56H17.04ZM133.285 84L132.805 72.84V-5.72205e-06H144.085V84H133.285ZM113.125 85.44C107.685 85.44 102.925 84.12 98.8453 81.48C94.8453 78.84 91.6853 75.16 89.3653 70.44C87.1253 65.72 86.0053 60.24 86.0053 54C86.0053 47.68 87.1253 42.2 89.3653 37.56C91.6853 32.84 94.8453 29.16 98.8453 26.52C102.925 23.88 107.685 22.56 113.125 22.56C118.165 22.56 122.525 23.88 126.205 26.52C129.965 29.16 132.845 32.84 134.845 37.56C136.845 42.2 137.845 47.68 137.845 54C137.845 60.24 136.845 65.72 134.845 70.44C132.845 75.16 129.965 78.84 126.205 81.48C122.525 84.12 118.165 85.44 113.125 85.44ZM115.765 75.12C119.125 75.12 122.085 74.24 124.645 72.48C127.205 70.64 129.205 68.16 130.645 65.04C132.085 61.84 132.805 58.16 132.805 54C132.805 49.84 132.085 46.2 130.645 43.08C129.205 39.88 127.205 37.4 124.645 35.64C122.085 33.8 119.085 32.88 115.645 32.88C112.125 32.88 109.005 33.8 106.285 35.64C103.565 37.4 101.445 39.88 99.9253 43.08C98.4053 46.2 97.6453 49.84 97.6453 54C97.6453 58.16 98.4053 61.84 99.9253 65.04C101.525 68.16 103.685 70.64 106.405 72.48C109.125 74.24 112.245 75.12 115.765 75.12ZM178.752 84L202.752 24H214.632L189.552 84H178.752ZM178.032 84L153.072 24H164.712L188.712 84H178.032ZM258.862 84L258.382 73.56V52.68C258.382 48.28 257.862 44.6 256.822 41.64C255.862 38.68 254.342 36.44 252.262 34.92C250.262 33.4 247.582 32.64 244.222 32.64C241.102 32.64 238.382 33.28 236.062 34.56C233.822 35.84 231.942 37.84 230.422 40.56L220.342 36.72C221.782 34 223.582 31.6 225.742 29.52C227.902 27.36 230.502 25.68 233.542 24.48C236.582 23.2 240.142 22.56 244.222 22.56C249.902 22.56 254.622 23.68 258.382 25.92C262.142 28.16 264.942 31.4 266.782 35.64C268.702 39.88 269.622 45.12 269.542 51.36L269.422 84H258.862ZM241.222 85.44C234.102 85.44 228.542 83.84 224.542 80.64C220.622 77.36 218.662 72.84 218.662 67.08C218.662 60.92 220.702 56.24 224.782 53.04C228.942 49.76 234.702 48.12 242.062 48.12H258.742V57.12H245.182C239.662 57.12 235.782 58 233.542 59.76C231.302 61.44 230.182 63.8 230.182 66.84C230.182 69.64 231.222 71.84 233.302 73.44C235.462 74.96 238.422 75.72 242.182 75.72C245.462 75.72 248.302 75.04 250.702 73.68C253.102 72.24 254.982 70.24 256.342 67.68C257.702 65.12 258.382 62.2 258.382 58.92H262.342C262.342 67.08 260.582 73.56 257.062 78.36C253.622 83.08 248.342 85.44 241.222 85.44ZM283.897 84V24H294.577L295.297 35.04V84H283.897ZM325.417 84V53.28H336.817V84H325.417ZM325.417 53.28C325.417 47.84 324.777 43.72 323.497 40.92C322.297 38.04 320.577 36.04 318.337 34.92C316.177 33.8 313.657 33.2 310.777 33.12C305.897 33.12 302.097 34.84 299.377 38.28C296.657 41.72 295.297 46.56 295.297 52.8H290.377C290.377 46.48 291.297 41.08 293.137 36.6C295.057 32.04 297.737 28.56 301.177 26.16C304.697 23.76 308.857 22.56 313.657 22.56C318.377 22.56 322.457 23.52 325.897 25.44C329.417 27.36 332.097 30.36 333.937 34.44C335.857 38.44 336.817 43.72 336.817 50.28V53.28H325.417ZM378.522 85.44C372.522 85.44 367.202 84.12 362.562 81.48C357.922 78.76 354.282 75.04 351.642 70.32C349.082 65.6 347.802 60.16 347.802 54C347.802 47.84 349.082 42.4 351.642 37.68C354.282 32.96 357.882 29.28 362.442 26.64C367.082 23.92 372.362 22.56 378.282 22.56C384.122 22.56 389.362 23.92 394.002 26.64C398.722 29.36 402.242 33.24 404.562 38.28L394.242 42.6C392.722 39.64 390.522 37.32 387.642 35.64C384.842 33.96 381.602 33.12 377.922 33.12C374.322 33.12 371.122 34 368.322 35.76C365.522 37.52 363.322 40 361.722 43.2C360.122 46.32 359.322 49.92 359.322 54C359.322 58.08 360.122 61.68 361.722 64.8C363.322 67.92 365.562 70.4 368.442 72.24C371.322 74 374.562 74.88 378.162 74.88C381.842 74.88 385.122 73.96 388.002 72.12C390.882 70.2 393.042 67.64 394.482 64.44L404.922 68.64C402.602 73.92 399.082 78.04 394.362 81C389.722 83.96 384.442 85.44 378.522 85.44ZM418.961 84V-5.72205e-06H469.481V10.8H430.721V35.76H465.641V46.32H430.721V73.2H469.721V84H418.961ZM531.02 84L530.54 72.84V-5.72205e-06H541.82V84H531.02ZM510.86 85.44C505.42 85.44 500.66 84.12 496.58 81.48C492.58 78.84 489.42 75.16 487.1 70.44C484.86 65.72 483.74 60.24 483.74 54C483.74 47.68 484.86 42.2 487.1 37.56C489.42 32.84 492.58 29.16 496.58 26.52C500.66 23.88 505.42 22.56 510.86 22.56C515.9 22.56 520.26 23.88 523.94 26.52C527.7 29.16 530.58 32.84 532.58 37.56C534.58 42.2 535.58 47.68 535.58 54C535.58 60.24 534.58 65.72 532.58 70.44C530.58 75.16 527.7 78.84 523.94 81.48C520.26 84.12 515.9 85.44 510.86 85.44ZM513.5 75.12C516.86 75.12 519.82 74.24 522.38 72.48C524.94 70.64 526.94 68.16 528.38 65.04C529.82 61.84 530.54 58.16 530.54 54C530.54 49.84 529.82 46.2 528.38 43.08C526.94 39.88 524.94 37.4 522.38 35.64C519.82 33.8 516.82 32.88 513.38 32.88C509.86 32.88 506.74 33.8 504.02 35.64C501.3 37.4 499.18 39.88 497.66 43.08C496.14 46.2 495.38 49.84 495.38 54C495.38 58.16 496.14 61.84 497.66 65.04C499.26 68.16 501.42 70.64 504.14 72.48C506.86 74.24 509.98 75.12 513.5 75.12Z" fill="#024550"/>
</svg>
